<?xml version="1.0" encoding="utf-8"?>
<!-- Generator: Adobe Illustrator 16.0.0, SVG Export Plug-In . SVG Version: 6.00 Build 0)  -->
<!DOCTYPE svg PUBLIC "-//W3C//DTD SVG 1.0//EN" "http://www.w3.org/TR/2001/REC-SVG-20010904/DTD/svg10.dtd" [
	<!ENTITY ns_flows "http://ns.adobe.com/Flows/1.0/">
	<!ENTITY ns_extend "http://ns.adobe.com/Extensibility/1.0/">
	<!ENTITY ns_ai "http://ns.adobe.com/AdobeIllustrator/10.0/">
	<!ENTITY ns_graphs "http://ns.adobe.com/Graphs/1.0/">
]>
<svg version="1.0" xmlns:x="&ns_extend;" xmlns:i="&ns_ai;" xmlns:graph="&ns_graphs;"
	 xmlns="http://www.w3.org/2000/svg" xmlns:xlink="http://www.w3.org/1999/xlink" xmlns:a="http://ns.adobe.com/AdobeSVGViewerExtensions/3.0/"
	 x="0px" y="0px" width="1400px" height="980px" viewBox="0 0 1400 980" enable-background="new 0 0 1400 980" xml:space="preserve"
	>
<g id="Background">
	<polyline fill-rule="evenodd" clip-rule="evenodd" fill="#FEF3F7" points="1400,0 0,0 0,980 1400,980 	"/>
</g>
<g id="Objects">
	<g>
		<g>
			<g>
				<path fill-rule="evenodd" clip-rule="evenodd" fill="#D8CFD2" d="M435.7,392.6c-4.9,2.2-52.1-13.1-57.8-12.2
					C275,395.2,176.7,544.8,174.4,639.9c-0.6,23.7,1,49,5.5,72.3c15.7,80.7,168.6,73,225.2,57.2c12.4-3.5,35.4-14.3,33.7-31.3
					c-2.7-27.6,7.4-53.8,4.3-81.9C436,589.7,433,521.5,402,460.6C391.2,439.5,460.6,381.6,435.7,392.6z"/>
				<g>
					<path fill="#845964" d="M434.5,388.3C434.2,388.4,433.5,388.4,434.5,388.3c-0.4,0.1-0.8,0-1.2,0c-1-0.1-2-0.2-3-0.4
						c-3.8-0.6-7.5-1.6-11.2-2.5c-8.5-2.1-16.9-4.4-25.4-6.6c-5.2-1.3-11.5-3.6-16.9-2.8c-9.6,1.4-19,4-28.1,7.3
						C308,398.4,274,429,246.8,462c-28.6,34.8-51.5,74.9-65.6,117.7c-6,18.4-10.2,37.6-11.2,57c-0.7,14.7-0.1,29.5,1.1,44.1
						c1.1,12.9,2.4,26.4,6,38.8c9.3,31.6,40.6,48.1,70.3,56.1c34.9,9.3,72.3,9.8,108,6.6c15-1.4,30-3.5,44.7-7
						c16.3-3.9,36.7-11.9,42.4-29.3c1.8-5.4,0.4-11.5,0.3-17.1c-0.1-7.9,0.7-15.7,1.7-23.5c1.9-15.1,4.3-30.2,3.4-45.5
						c-0.9-14.8-3-29.7-4.5-44.5c-1.5-14.6-3.1-29.2-5.1-43.7c-4.1-29.3-10.1-58.4-20.5-86.1c-2.4-6.5-5.2-12.9-8.1-19.2
						c-1.7-3.7-4.4-7.4-4.5-11.1c-0.1-5.5,3.3-11.2,6-15.8c7.4-12.4,17.2-23.2,26.3-34.4c2.8-3.5,6-7,7.6-11.2c2-5-3.1-7.9-7.3-7
						c-1.6,0.3-3.1,1.1-4.5,1.7c-5.3,2.3-0.7,10.1,4.5,7.8c0.5-0.2,1.4-0.5,2-0.7c0.3-0.1,1.4-0.2,0,0c-0.2,0-2.1-0.9-2.8-1.9
						c-0.4-0.6-0.4-2.5-0.5-2.4c-0.2,0.9,0.5-1,0-0.1c-0.4,0.8-0.9,1.6-1.5,2.3c-3.1,4.6-6.9,8.7-10.4,12.9
						c-9.3,11.2-19.4,22.8-25.4,36.3c-2.3,5.3-4,11.1-2.6,16.9c1.2,5,4.6,9.8,6.7,14.4c3.3,7.2,6.1,14.7,8.7,22.2
						c9.8,28.1,15,57.7,18.7,87.2c1.9,14.7,3.3,29.5,4.8,44.3c1.5,14.9,3.9,30,3.4,45c-0.5,15.2-3.7,30.1-4.8,45.2
						c-0.6,7.1-0.3,14.1,0.1,21.2c0.3,5.1-2.8,9.4-6.2,12.8c-11.3,11.3-28.9,14.6-44,17.4c-16.1,2.9-32.4,4.5-48.7,5.2
						c-35.4,1.5-72.9-0.7-106-14.4c-13.8-5.7-27-14.3-35.7-26.6c-4.3-6-7.2-12.8-9-20c-3.5-14.3-4.7-29.5-5.5-44.1
						c-1.3-22.8-0.5-45.1,4.8-67.4c4.9-20.8,12.7-41,22-60.2c20-41.3,47.7-79.6,81.9-110.2c24.2-21.7,53.1-39.8,85.4-46.1
						c10.1-2,21.5,2.8,31.9,5.5c6.5,1.7,12.9,3.4,19.4,4.8c3.6,0.8,8.5,2.3,12.1,1C442.3,395,440,386.3,434.5,388.3z"/>
				</g>
			</g>
			<g>
				<path fill-rule="evenodd" clip-rule="evenodd" fill="#D8CFD2" d="M573.9,424.3c0.3-24.3-50-65.9-59.8-29.2
					c-5,18.6-81.8,18.7-86.6,0c-9.4-36.9-60.2,3.9-60.2,28.2c0,0-5.6,207.3,58.3,321.7c0,0,21.6,33.5,43.3,12.8
					c21.2,19.6,42.6-12.8,42.6-12.8C576.9,631.6,573.9,424.3,573.9,424.3z"/>
				<g>
					<path fill="#845964" d="M578.4,424.3c-0.2-16.2-13.6-30.7-25.9-39.7c-11.9-8.7-29.6-13.5-39.2,0.7c-1.9,2.8-2.7,7-3.9,9.3
						c-0.9,1.8-3,3-4.9,4.1c-6,3.2-13.4,4.4-20.1,5.2c-14.7,1.7-32.4,1.8-46.2-4.5c-6.6-3-6-6.3-9-12.4c-3.2-6.7-9.7-10.6-17-11.1
						c-16-1.1-31.5,13.2-40.4,24.9c-5.8,7.6-8.9,16-9.1,25.5c-0.1,8.3-0.1,16.5,0.1,24.8c1.2,77.7,8.9,157.5,32.1,231.9
						c3.8,12.3,8.3,24.5,13.3,36.4c4.1,9.6,8.2,20.2,14.1,28.7c4.7,6.8,10.7,12.9,17.9,17c10.9,6.3,22.7,4.1,31.8-4.2
						c-2.1,0-4.2,0-6.4,0c7.5,6.6,16.5,9.4,26.1,6.1c7.5-2.6,13.9-8.1,19.1-14c4.1-4.7,6.9-9.9,9.7-15.4c4.8-9.2,9.1-18.7,13-28.4
						c16.6-40.8,26.1-84.4,32.9-127.8C574.5,529.8,579.1,476.7,578.4,424.3c-0.1-5.8-9.1-5.8-9,0c0.8,54.6-4.2,110-13,163.8
						c-6.3,38.3-15.2,76.5-29.1,112.8c-3.3,8.7-7,17.2-11.1,25.6c-2.8,5.8-5.6,12.1-9.4,17.4c-7.9,10.8-22.2,21.7-34.7,10.7
						c-1.9-1.7-4.5-1.7-6.4,0c-13.1,12-28,0.3-36-11.7c-5-7.4-8.6-16.4-12.2-24.6c-4.3-9.9-8.1-20-11.5-30.2
						c-14-41.9-22-85.8-27.1-129.6c-4.1-34.7-6.3-69.6-7-104.5c-0.2-8.9-0.2-17.8-0.1-26.6c0.1-8.4,2.8-15.2,7.9-22.1
						c5-6.8,11.8-12.6,19.1-16.7c5.3-3,12.6-5.6,18.4-2.3c5.8,3.3,5.3,11.2,9.5,15.9c4.1,4.5,10.7,6.7,16.4,8.2
						c15.8,4.2,33.3,4,49.3,1.3c6.6-1.1,13.4-3,19-6.6c2.3-1.5,4.1-3.3,5.6-5.5c2-2.9,2.3-6.7,4.2-9.7c6.5-10.6,21.6-1.7,28.5,3.7
						c8.9,7,19.7,18.6,19.8,30.7C569.5,430.1,578.5,430.1,578.4,424.3z"/>
				</g>
			</g>
			<g>
				<path fill-rule="evenodd" clip-rule="evenodd" fill="#D8CFD2" d="M284.3,622.5c0,0,75-35.6,111.7,47.6
					c7.2,16.4,18.2,69.3,60.6,47.6"/>
				<g>
					<path fill="#845964" d="M286.6,626.4c0.4-0.2,1.7-0.8,0.2-0.1c1.2-0.5,2.4-1,3.7-1.4c4.1-1.5,8.3-2.6,12.6-3.5
						c12.7-2.7,26-2.6,38.5,1c18.2,5.2,32.3,18.3,42.1,34c8.7,13.8,12.4,29.2,19.5,43.8c4.6,9.4,11,18.6,20.4,23.7
						c11.4,6.1,24.2,3.3,35.2-2.2c5.2-2.6,0.6-10.3-4.5-7.8c-7.9,3.9-16.4,6.1-24.9,2.8c-6.6-2.5-11.4-8.8-14.9-14.6
						c-7.7-12.5-10.9-26.9-17.3-40c-8.9-18.1-22.4-34.4-40.7-43.5c-13.2-6.6-28.2-8.9-42.9-7.8c-10.7,0.9-21.8,3.3-31.6,7.9
						C276.8,621.1,281.4,628.9,286.6,626.4L286.6,626.4z"/>
				</g>
			</g>
			<g>
				<path fill-rule="evenodd" clip-rule="evenodd" fill="#D8CFD2" d="M371.3,442.7c0,0-11,194.3,49.9,303.4c0,0,32.2,50,59.5-11.5
					c27.3-61.5-40-281.8-48.4-316.7C423.8,383,372,419.9,371.3,442.7z"/>
				<g>
					<path fill="#845964" d="M366.8,442.7c-3.2,56.8,0.4,114.8,9,170.9c6.6,43.3,17.2,86.8,36.9,126.1
						c10.2,20.4,33.2,41.4,55.3,22.3c12.3-10.7,19.4-28.1,21.9-44c2.3-14.6,2.1-29.5,1.2-44.2c-2.3-37.8-9.6-75.3-17.6-112.1
						c-7.6-34.8-16.5-69.4-25.8-103.8c-3-11.1-6.1-22.2-9-33.3c-3-11.4-6.2-23.8-20.1-25.3c-12.1-1.4-24,5.9-33,13.2
						C376.5,419.8,367.4,430.6,366.8,442.7c-0.3,5.8,8.7,5.8,9,0c0.4-7,5.4-13.3,10-18.2c5.7-6.1,12.7-11.3,20.5-14.3
						c5.7-2.2,13-3.6,17.8,1.1c3.5,3.4,4.1,9,5.3,13.5c6.8,26.1,14.2,52,20.8,78.1c9.6,37.6,18.3,75.4,24.8,113.6
						c3.1,18,5.5,36.2,6.8,54.4c1.1,14.6,1.5,29.5-0.5,44.1c-2.2,15.3-8.9,33.3-21.9,42.5c-10.7,7.6-21.9,0.6-29.6-7.7
						c-2.2-2.4-3.1-3.5-4.7-5.8c-5.6-8.7-9.7-18.9-13.6-28.4c-8.3-20.5-14.4-41.8-19.3-63.3c-15.1-66.5-19.2-136.4-16.6-204.5
						c0.1-1.7,0.1-3.3,0.2-5C376.1,436.9,367.1,436.9,366.8,442.7z"/>
				</g>
			</g>
			<g>
				<path fill-rule="evenodd" clip-rule="evenodd" fill="#D8CFD2" d="M573.9,445.2c0,0,2.9,194.6-62.4,301c0,0-34.2,48.6-58.9-14.1
					s51.6-279.8,61.5-314.3C523.9,383.3,574.2,422.4,573.9,445.2z"/>
				<g>
					<path fill="#845964" d="M569.4,445.2c0.8,56.3-5,113.7-15.9,168.8c-8.4,42.6-20.6,85.6-42.2,123.6c-1.3,2.3-2.5,4.7-4.1,6.7
						c-0.5,0.6,0.6-0.7-0.4,0.5c-0.6,0.7-1.2,1.4-1.8,2.1c-3.2,3.7-6.9,6.9-11.1,9.4c-15.3,9.1-26.6-4.1-33.3-17.1
						c-13.6-26.4-8.7-59.5-4.4-87.6c5.8-38.3,15.4-76.1,25.8-113.3c8.8-31.7,18.6-63.2,28.6-94.6c2.7-8.6,5.4-17.1,8-25.8
						c5.4-17.7,26.1-5.7,35,1.9C560.7,425.9,569.3,435.3,569.4,445.2c0.1,5.8,9.1,5.8,9,0c-0.2-15.9-14.4-29.8-26.7-38
						c-12.3-8.1-30.4-12.2-39.3,2.7c-2.4,4.1-3.4,9-4.8,13.5c-1.4,4.6-2.9,9.2-4.4,13.9c-4.3,13.4-8.5,26.8-12.7,40.2
						c-11.1,36-21.6,72.2-30.4,108.9c-8.3,34.8-16,70.6-17,106.4c-0.4,12.5,0.1,25.7,4,37.7c5.1,15.9,15.9,36.1,34.5,38
						c11.4,1.2,22.2-6.9,29.4-14.9c9.3-10.1,14.9-23.9,20.4-36.2c18-40.2,28.2-83.6,35.3-126.8c5.9-36.2,9.3-72.8,10.8-109.4
						c0.5-12,0.9-24,0.7-36C578.3,439.4,569.3,439.4,569.4,445.2z"/>
				</g>
			</g>
			<g>
				<g>
					<path fill="#8DB8CF" d="M470.5,458c-54.7,0-100-7.5-107.4-50.6c-0.7,4.1-1.1,8.2-1.1,12.5c0,49,48.6,88.7,108.5,88.7
						c59.9,0,108.5-39.7,108.5-88.7c0-4.2-0.4-8.4-1.1-12.5C570.5,450.5,525.3,458,470.5,458z"/>
					<g>
						<path fill="#845964" d="M470.5,453.5c-37.2,0-94.6-0.9-103.1-47.3c-0.8-4.3-8-4.4-8.7,0c-7.4,46.4,25.6,84.3,67.3,99.4
							c43.9,15.9,97.8,6.8,131.5-26.3c19.6-19.2,29-46,24.7-73.1c-0.7-4.4-7.9-4.3-8.7,0C565.2,452.6,507.7,453.4,470.5,453.5
							c-5.8,0-5.8,9,0,9c41.4-0.1,102.5-2.8,111.7-53.9c-2.9,0-5.8,0-8.7,0c3.6,22.3-4.1,44-18.9,60.7
							c-15.2,17.1-36.6,27.5-58.7,32.3c-44.6,9.5-98.5-6.8-121.2-48.6c-7.3-13.5-9.8-29.2-7.4-44.4c-2.9,0-5.8,0-8.7,0
							c9.3,51,70.4,53.8,111.7,53.9C476.3,462.5,476.3,453.5,470.5,453.5z"/>
					</g>
				</g>
			</g>
			<g>
				<g>
					<path fill-rule="evenodd" clip-rule="evenodd" fill="#D8CFD2" d="M350.3,301.1c0,0-62.9-53.8-9.2-150c0,0,86.4-4.9,114.4,46.3
						C455.6,197.4,431.8,313.9,350.3,301.1z"/>
					<g>
						<path fill="#845964" d="M353.5,297.9c-10.9-9.3-18.6-23.2-23.4-36.5c-13.2-36.4-3.2-75.3,15-108c-1.3,0.7-2.6,1.5-3.9,2.2
							c14.6-0.8,29.7,0.7,44,3.5c26,5.1,53,16.4,66.5,40.6c-0.2-1.2-0.3-2.3-0.5-3.5c-3.6,17.7-10.5,35.1-19,50.9
							c-14.8,27.4-38.8,51.2-71.9,50.4c-2.9-0.1-5.9-0.4-8.8-0.8c-5.7-0.9-8.1,7.8-2.4,8.7c17.1,2.6,33.9,0.2,49.1-8.1
							c13.6-7.5,24.5-19.2,33.3-31.8c13.2-19,22.2-41.6,27.7-64c0.8-3.2,0.9-5.1-0.9-8.3c-4.7-8-11.2-15-18.5-20.7
							c-14.3-11.1-31.7-17.6-49.3-21.4c-13.6-3-27.5-4.4-41.4-4.5c-2.6,0-5.3,0-7.9,0.1c-4.7,0.2-6.6,6.9-8.4,10.5
							c-3.3,6.5-6.2,13.2-8.7,20c-11.4,30.3-12.7,63.7,0,93.8c5.1,12.1,12.9,24.8,23,33.5C351.5,308,357.9,301.7,353.5,297.9z"/>
					</g>
				</g>
				<g>
					<path fill-rule="evenodd" clip-rule="evenodd" fill="#D8CFD2" d="M600.2,301.1c0,0,62.9-53.8,9.2-150c0,0-86.4-4.9-114.4,46.3
						C494.9,197.4,518.7,313.9,600.2,301.1z"/>
					<g>
						<path fill="#845964" d="M603.3,304.3c14.9-12.8,24.5-33.1,29.1-51.7c4.9-20,3.7-40.9-1.4-60.8c-3.4-13.2-8.8-25.9-15.1-38
							c-1.6-3.1-2.8-7-6.9-7.2c-1.1-0.1-2.1-0.1-3.2-0.1c-29.3-0.5-60.7,4.6-86.2,19.7c-7.9,4.7-15.1,10.7-21,17.7
							c-3.2,3.9-9.2,10.1-8,15.4c1.6,7.2,3.8,14.3,6.2,21.3c7.5,21.5,18,42.5,33.6,59.4c18.5,20.1,43.8,29.5,70.9,25.4
							c5.7-0.9,3.3-9.5-2.4-8.7c-57,8.6-89.3-53-99.6-100.1c0-0.2-0.1-0.3-0.1-0.5c-0.2,1.2-0.3,2.3-0.5,3.5
							c13.4-23.9,39.8-35.1,65.5-40.4c14.6-3,30.1-4.5,45-3.7c-1.3-0.7-2.6-1.5-3.9-2.2c18.3,33,27.9,71.4,15,108
							c-4.7,13.2-12.6,27.2-23.4,36.5C592.6,301.7,599,308,603.3,304.3z"/>
					</g>
				</g>
				<g>
					<circle fill-rule="evenodd" clip-rule="evenodd" fill="#D8CFD2" cx="470.5" cy="317.9" r="149.6"/>
					<g>
						<path fill="#845964" d="M624.6,317.9c-0.2-44.8-19.8-87.7-53.8-116.9c-34.3-29.6-80.4-42-125-35.2
							c-43.7,6.7-82.7,33.4-106.1,70.6c-24.2,38.3-29.6,86.8-15.6,129.7c13.6,41.7,45.6,76.3,85.9,93.5c41.8,17.9,90.1,16,130.6-4.5
							C591.9,429.3,624.4,375.1,624.6,317.9c0-5.8-9-5.8-9,0c-0.2,45.1-21.4,88.2-57.3,115.6c-36.4,27.7-84.6,36.3-128.5,23.7
							c-42.6-12.2-78-44.8-94.3-86c-16.9-42.6-12.1-91.5,12-130.3c23.5-38,64.7-63.2,109.1-67.5c45.3-4.4,90.2,13.3,121,46.6
							c24.5,26.5,37.8,61.9,38,97.9C615.7,323.7,624.7,323.7,624.6,317.9z"/>
					</g>
				</g>
				<g>
					<circle fill-rule="evenodd" clip-rule="evenodd" fill="#845964" cx="422" cy="291" r="11.8"/>
				</g>
				<g>
					<circle fill-rule="evenodd" clip-rule="evenodd" fill="#845964" cx="517.3" cy="291" r="11.8"/>
				</g>
				<g>
					<path fill-rule="evenodd" clip-rule="evenodd" fill="#BEB8BB" d="M491.4,345.5c0-7-7.8-12.8-17.3-12.8
						c-9.6,0-17.3,5.7-17.3,12.8c0,7,17.3,18.4,17.3,18.4S491.4,352.5,491.4,345.5z"/>
					<g>
						<path fill="#845964" d="M495.9,345.5c-1.2-20.4-32.8-22.6-41.9-6.7c-7,12.2,9.2,23.3,17.8,29c1.3,0.8,3.3,0.8,4.5,0
							C483.9,362.8,495.2,355.3,495.9,345.5c0.4-5.8-8.6-5.8-9,0c-0.3,3.5-5.8,7.3-8.1,9.4c-2.2,1.9-4.5,3.6-6.9,5.2
							c1.5,0,3,0,4.5,0c-5.5-3.6-11.9-8.1-15-14c-2.7-5.1,8.2-8.5,11.1-8.7c5.3-0.5,14,1.7,14.4,8.2
							C487.3,351.2,496.3,351.3,495.9,345.5z"/>
					</g>
				</g>
				<g>
					<line fill-rule="evenodd" clip-rule="evenodd" fill="#BEB8BB" x1="474.1" y1="362.3" x2="474.1" y2="391.1"/>
					<g>
						<path fill="#845964" d="M469.6,362.3c0,9.6,0,19.2,0,28.8c0,5.8,9,5.8,9,0c0-9.6,0-19.2,0-28.8
							C478.6,356.5,469.6,356.5,469.6,362.3L469.6,362.3z"/>
					</g>
				</g>
				<g>
					<line fill-rule="evenodd" clip-rule="evenodd" fill="#BEB8BB" x1="492" y1="392.9" x2="456.3" y2="392.9"/>
					<g>
						<path fill="#845964" d="M492,388.4c-11.9,0-23.8,0-35.7,0c-5.8,0-5.8,9,0,9c11.9,0,23.8,0,35.7,0
							C497.8,397.4,497.8,388.4,492,388.4L492,388.4z"/>
					</g>
				</g>
				<g>
					<g>
						<g>
							<g>
								<path fill="#845964" d="M423.5,357.8c-20.8-7.9-42.4-14.1-64-19.3c-18.5-4.5-37.3-8-56.2-9.8c-17.2-1.6-35-1.8-51.8,2.5
									c-5.6,1.4-3.2,10.1,2.4,8.7c16.5-4.2,33.9-3.7,50.7-2.1c18.5,1.8,36.9,5.5,54.9,9.9c20.8,5.1,41.6,11.2,61.6,18.8
									C426.6,368.6,428.9,359.9,423.5,357.8L423.5,357.8z"/>
							</g>
						</g>
						<g>
							<g>
								<path fill="#845964" d="M419.3,359.1c-22-1.1-44.2-0.5-66.2,1c-19.1,1.3-38.1,3.7-56.8,7.7c-16.9,3.7-34.1,8.9-48.9,18.2
									c-4.9,3.1-0.4,10.9,4.5,7.8c14.2-8.9,30.5-13.7,46.8-17.3c18.3-4,37-6.2,55.6-7.5c21.6-1.5,43.4-2,65.1-0.9
									C425.1,368.4,425,359.4,419.3,359.1L419.3,359.1z"/>
							</g>
						</g>
					</g>
					<g>
						<g>
							<g>
								<path fill="#845964" d="M519.9,366.5c20.1-7.6,40.8-13.6,61.6-18.8c18.1-4.5,36.4-8.1,54.9-9.9c16.8-1.7,34.3-2.1,50.7,2.1
									c5.6,1.4,8-7.2,2.4-8.7c-16.9-4.3-34.6-4.1-51.8-2.5c-19,1.7-37.7,5.4-56.2,9.8c-21.6,5.2-43.2,11.5-64,19.3
									C512.2,359.9,514.5,368.6,519.9,366.5L519.9,366.5z"/>
							</g>
						</g>
						<g>
							<g>
								<path fill="#845964" d="M521.8,368.1c21.2-1.1,42.7-0.5,63.9,0.9c18.7,1.2,37.3,3.4,55.6,7.3c16.6,3.5,33.4,8.5,48,17.5
									c4.9,3.1,9.5-4.7,4.5-7.8c-14.5-9.1-31.2-14.2-47.7-17.9c-18.7-4.2-37.8-6.5-56.9-7.9c-22.4-1.7-45-2.3-67.4-1.1
									C516,359.4,516,368.4,521.8,368.1L521.8,368.1z"/>
							</g>
						</g>
					</g>
				</g>
				<g>
					<g>
						<path fill="#845964" d="M455.1,387.9c-0.6,0-1.2-0.1-1.8-0.1c1.6,0.2-0.7-0.1-1.1-0.2c-0.8-0.2-1.6-0.4-2.3-0.7
							c1,0.4-0.8-0.5-1.1-0.7c0.9,0.6,0,0-0.1-0.2c-0.3-0.4-0.3-0.3,0,0.1c-0.1-0.2-0.2-0.4-0.4-0.6c0.5,0.9,0,0,0-0.3
							c0.3,1.3,0.1-1.1,0-0.1c0.2-1.2,0.7-2.2,1.2-3.3c2.8-5.1-5-9.6-7.8-4.5c-3.3,6.1-3.4,13.1,3.1,17.1c3,1.8,6.9,2.6,10.4,2.6
							C460.9,397,460.9,388,455.1,387.9L455.1,387.9z"/>
					</g>
				</g>
			</g>
			<g>
				<path fill-rule="evenodd" clip-rule="evenodd" fill="#D8CFD2" d="M174.2,652.1c-0.6,8-25.3,32.3-29.5,41.7
					c-12.9,29.4-17.6,65.7,1.4,93.6c65.4,96.4,208.1-4.3,294.4-9.3c33-1.9,98.9-3.1,115.6,34.7c1.4,3,2.6,5.6,5.4,7.1
					c7-19-16.1-45.8-28.4-57.5c-56.8-54.2-133.7-38-203.4-29.5c-23.3,2.8-46.4-0.1-69.3-4.7C221.9,720.6,170.3,700.3,174.2,652.1z"
					/>
				<g>
					<path fill="#845964" d="M169.7,652.1c-0.2,1.6-3,5.3-4.3,7.1c-2.9,4.1-6.2,8-9.4,11.9c-5.2,6.4-11.7,12.9-15.2,20.4
						c-10.8,23.1-15.4,50.6-8.9,75.5c5.5,21.1,21,39.5,39.1,51.2c15.7,10.2,34.3,14.4,52.8,15.1c42.1,1.6,83.8-13.6,123.1-26.7
						c19.8-6.6,39.5-13.3,59.7-18.4c17.1-4.3,34-6.1,51.6-6.4c19.7-0.4,39.9,0.7,58.9,6.4c8.8,2.6,17.5,6.6,24.5,12.6
						c3.5,3,6.3,6.5,8.7,10.4c2.8,4.7,4.1,9.4,9,12.5c2.6,1.6,5.7,0,6.6-2.7c6.8-20.3-10.7-41.9-23.5-55.8
						c-16.4-17.8-37.2-30.7-60.2-38.1c-47.7-15.3-99.5-5.6-148,0.5c-21.8,2.7-43.3,1.3-64.9-2.5c-14.7-2.6-29.2-6.2-43.1-11.8
						c-12.9-5.2-25.3-12.5-34.8-22.8c-9.7-10.6-13.7-24.3-12.7-38.6C179.1,646.3,170.1,646.4,169.7,652.1
						c-3.2,44.9,39.7,67.9,77.2,77.6c27.8,7.2,57.3,10.8,85.8,7.3c25-3.1,50-6.9,75.2-8.2c33.7-1.8,68.1,1.5,97.9,18.6
						c13.9,7.9,25.9,18.7,36.1,31c8.6,10.3,20.1,26.2,15.4,40.4c2.2-0.9,4.4-1.8,6.6-2.7c-3.7-2.3-5.1-8.4-7.4-12
						c-2.5-3.8-5.7-7.2-9.2-10.2c-7.1-6.1-15.6-10.1-24.3-13.1c-18.8-6.5-39.4-7.8-59.1-7.8c-17.4,0-34.7,1.2-51.7,4.9
						c-20,4.3-39.5,10.9-58.9,17.3c-39.8,13.3-81.1,28.9-123.6,29.3c-18.6,0.2-37.1-3.6-53.1-13.3c-19.3-11.8-33.6-31.8-37.5-54.1
						c-2.1-12.1-0.9-24.8,1.7-36.7c2.1-9.7,5-20.6,10.7-28.9c4.9-7.3,11-13.8,16.5-20.7c4.4-5.5,10-11.6,10.9-18.8
						C179.5,646.4,170.5,646.5,169.7,652.1z"/>
				</g>
			</g>
		</g>
		<g>
			<g>
				<path fill="#8DB8CF" d="M711.3,686.4c0.1-0.5,0.2-0.9,0.2-0.9C711.3,685.9,711.3,686.1,711.3,686.4z"/>
				<g>
					<path fill="#845964" d="M715.7,687.6c0.1-0.3,0.1-0.6,0.2-0.9c0.4-2-0.3-4-2.1-5.1c-1-0.6-2.3-0.8-3.5-0.5
						c-1,0.3-2.2,1.1-2.7,2.1c-0.5,1.1-0.8,1.9-0.8,3.1c0,2.5,2.1,4.5,4.5,4.5c2.5,0,4.5-2,4.5-4.5c0-0.1,0-0.2,0-0.3
						c-0.1,0.4-0.1,0.8-0.2,1.2c0-0.1,0-0.2,0.1-0.3c-0.2,0.4-0.3,0.7-0.5,1.1c0-0.1,0.1-0.1,0.1-0.2c-2.7-1.2-5.5-2.3-8.2-3.5
						c-0.1,0.3-0.1,0.6-0.2,0.9c-0.3,1.2-0.2,2.4,0.5,3.5c0.6,1,1.6,1.8,2.7,2.1C712.4,691.4,715.1,690,715.7,687.6z"/>
				</g>
			</g>
			<g>
				<path fill="#8DB8CF" d="M930.9,686.4c-0.4,9.9-94,17.8-109.8,19c-15.8-1.3-109.4-9.1-109.8-19c-1.3,6.3-9.3,47,0.2,71.1
					c10.3,26.1,61.6,14.8,67.8,12.2c6-2.5,12-22,41.9-23c29.8,1,35.9,20.5,41.9,23c6.2,2.5,57.5,13.9,67.8-12.2
					C940.2,733.4,932.2,692.7,930.9,686.4z"/>
				<g>
					<path fill="#845964" d="M926.4,686.4c0.1-1,0.9-2,0.2-1.3c0.8-0.7-1,0.5-1.4,0.7c-1.7,0.9-4.3,1.6-6.6,2.2
						c-7,2-14.2,3.2-21.3,4.4c-17.2,2.8-34.6,4.7-51.9,6.4c-10.4,1-20.7,2.5-31,1.6c-15.5-1.3-30.9-2.9-46.4-4.8
						c-12-1.5-24.1-3.1-35.9-5.6c-4.3-0.9-8.6-1.9-12.7-3.3c-1.4-0.5-2-0.7-3.4-1.5c-1.1-0.6-0.3-0.5-0.1,1.2
						c-0.5-4.7-7.7-6.5-8.8-1.2c-3.7,17.7-5.7,36.3-4,54.3c0.9,9.6,2.8,19.9,9.1,27.4c5.1,6.1,13.3,9.1,20.9,10.6
						c14.5,2.8,30.5,1.2,44.7-2.6c4.6-1.2,7.3-3.8,10.3-7.3c5-5.9,10.4-10.8,17.7-13.6c10.9-4.1,23.5-3.7,34,1.4
						c6.5,3.1,11.2,8.3,15.8,13.7c7.1,8.3,21.1,8.6,31.2,9.4c15.8,1.3,34.8-0.3,45.2-13.9c6-7.8,7-19.8,7.6-29.3
						c0.7-11-0.1-22.2-1.5-33.1c-0.7-5.7-1.6-11.4-2.8-17.1c-1.2-5.7-9.9-3.3-8.7,2.4c3.7,17.7,5.8,36.8,3.3,54.8
						c-1.2,8.9-3.4,17.7-11.5,22.5c-6.9,4.1-15.7,4.8-23.6,4.9c-7.5,0.1-15.1-0.8-22.5-2.3c-2.2-0.5-4.5-1-6.6-1.6
						c-0.3-0.1-0.7-0.2-1-0.3c-1-0.3,1,0.5-0.1-0.1c-0.2-0.1-1.2-1.1-1.9-1.9c-4.7-5.1-8.9-10.1-14.7-13.9c-9.1-6-20.9-8.2-31.6-7.2
						c-9.5,0.9-18.7,4.2-26.2,10.2c-4.6,3.7-7.9,8.4-12.1,12.4c-0.4,0.4-0.7,0.5-0.5,0.4c-0.7,0.3-1.5,0.5-2.3,0.7
						c-2.5,0.7-5,1.2-7.6,1.7c-7.7,1.4-15.5,2.1-23.3,1.8c-7.6-0.2-15.5-1.6-22-5.8c-7.5-4.8-9.1-15-10.1-23.1
						c-2.1-17.6-0.1-36,3.5-53.3c-2.9-0.4-5.9-0.8-8.8-1.2c1,9.9,19,11.6,26.3,13c17.1,3.3,34.5,5.3,51.9,7.2
						c7.7,0.8,15.3,1.6,23,2.3c4.4,0.4,9.3,1.4,13.8,1.1c13.2-1.1,26.4-2.3,39.6-3.8c16.5-1.8,33.1-3.8,49.5-7.1
						c7.1-1.4,23.6-3.2,24.5-12.6C936,680.7,927,680.7,926.4,686.4z"/>
				</g>
			</g>
			<g>
				<path fill="#8DB8CF" d="M930.9,686.4c0-0.3,0-0.6-0.2-0.9C930.7,685.6,930.8,685.9,930.9,686.4z"/>
				<g>
					<path fill="#845964" d="M935.4,686.4c0-1.2-0.3-2-0.8-3.1c-0.4-0.7-0.9-1.2-1.6-1.6c-1-0.6-2.3-0.8-3.5-0.5
						c-1.1,0.3-2.1,1.1-2.7,2.1c-0.6,1.1-0.7,2.3-0.5,3.5c0.1,0.3,0.1,0.6,0.2,0.9c0.5,2.4,3.3,3.8,5.5,3.1c1.1-0.3,2.1-1.1,2.7-2.1
						c0.6-1.1,0.7-2.3,0.5-3.5c-0.1-0.3-0.1-0.6-0.2-0.9c-2.7,1.2-5.5,2.3-8.2,3.5c0,0.1,0.1,0.1,0.1,0.2c-0.2-0.4-0.3-0.7-0.5-1.1
						c0,0.1,0.1,0.2,0.1,0.3c-0.1-0.4-0.1-0.8-0.2-1.2c0,0.1,0,0.2,0,0.3c0,2.5,2,4.5,4.5,4.5C933.4,690.9,935.4,688.9,935.4,686.4z
						"/>
				</g>
			</g>
		</g>
		<g>
			<ellipse fill-rule="evenodd" clip-rule="evenodd" fill="#8DB8CF" cx="821.1" cy="685.6" rx="108" ry="34.2"/>
			<g>
				<path fill="#845964" d="M933.6,685.6c-0.4-15.8-20.1-23.4-32.5-27.7c-25.4-8.7-53.4-10.9-80-11c-26.8-0.1-54.5,2.5-80,11
					c-12.4,4.1-32.1,12-32.5,27.7c-0.4,15.6,20.8,23.7,32.5,27.7c25.4,8.7,53.4,10.9,80,11c26.8,0.1,54.5-2.5,80-11
					C913.5,709.1,933.2,701.3,933.6,685.6c0.2-5.8-8.8-5.8-9,0c-0.2,5.6-6.2,9.6-10.5,12.2c-8.7,5.2-18.7,8.1-28.4,10.5
					c-28.2,7-58,8-86.8,6.2c-23.3-1.5-49.2-4.7-70-16.2c-4.4-2.4-10.9-6.6-11.3-12.1c-0.5-5.5,5.5-9.7,9.6-12.3
					c13.9-8.7,31.4-12.1,47.3-14.6c22.6-3.6,45.9-4.1,68.8-2.6c19.5,1.2,39.3,4.2,57.8,10.7c7.4,2.6,23.2,8.4,23.5,18.2
					C924.8,691.4,933.8,691.4,933.6,685.6z"/>
			</g>
		</g>
		<g>
			<ellipse fill-rule="evenodd" clip-rule="evenodd" fill="#8DB8CF" cx="821.1" cy="685.6" rx="65.3" ry="16.8"/>
			<g>
				<path fill="#845964" d="M891,685.6c-0.4-7.3-7.5-10.9-13.5-13.3c-10.7-4.5-22.9-5.9-34.3-7c-15.2-1.5-30.6-1.3-45.8,0.2
					c-11.3,1.1-23,2.8-33.6,7.2c-5.6,2.3-12.9,6.4-12.5,13.4c0.4,7.3,8.6,10.9,14.4,13.2c11,4.3,23.4,5.7,35.1,6.7
					c15.2,1.3,30.6,1.1,45.7-0.5c10.8-1.1,21.8-2.8,31.9-7C884.1,696.1,890.6,692.5,891,685.6c0.3-5.8-8.7-5.8-9,0
					c0,0.8-2.9,2.7-4.4,3.5c-4.3,2.3-9.3,3.5-14,4.7c-13.8,3.3-28.2,4.1-42.4,4.1c-14.2,0.1-28.5-1-42.4-4.1c-4.5-1-9-2.3-13.2-4.3
					c-1.7-0.8-5.2-2.9-5.2-3.9c0-0.8,3-2.7,4.4-3.5c4.3-2.3,9.3-3.5,14-4.7c13.8-3.3,28.2-4.1,42.4-4.1c14.2-0.1,28.5,1,42.4,4.1
					c4.5,1,9,2.3,13.2,4.3c1.7,0.8,5.2,2.9,5.2,3.9C882.3,691.3,891.3,691.4,891,685.6z"/>
			</g>
		</g>
		<g>
			<g>
				<path fill="#F6998A" d="M986,690.3c0.1-0.5,0.2-0.9,0.2-0.9C986.1,689.7,986,690,986,690.3z"/>
				<g>
					<path fill="#845964" d="M990.4,691.4c0.1-0.3,0.1-0.6,0.2-0.9c0.4-2-0.3-4-2.1-5.1c-1-0.6-2.3-0.8-3.5-0.5
						c-1,0.3-2.2,1.1-2.7,2.1c-0.5,1.1-0.8,1.9-0.8,3.1c0,2.5,2.1,4.5,4.5,4.5c2.5,0,4.5-2,4.5-4.5c0-0.1,0-0.2,0-0.3
						c-0.1,0.4-0.1,0.8-0.2,1.2c0-0.1,0-0.2,0.1-0.3c-0.2,0.4-0.3,0.7-0.5,1.1c0-0.1,0.1-0.1,0.1-0.2c-2.7-1.2-5.5-2.3-8.2-3.5
						c-0.1,0.3-0.1,0.6-0.2,0.9c-0.3,1.2-0.2,2.4,0.5,3.5c0.6,1,1.6,1.8,2.7,2.1C987.1,695.2,989.8,693.8,990.4,691.4z"/>
				</g>
			</g>
			<g>
				<path fill="#F6998A" d="M1205.6,690.3c-0.4,9.9-94,17.8-109.8,19c-15.8-1.3-109.4-9.1-109.8-19c-1.3,6.3-9.3,47,0.2,71.1
					c10.3,26.1,61.6,14.8,67.8,12.2c6-2.5,12-22,41.9-23c29.8,1,35.9,20.5,41.9,23c6.2,2.5,57.5,13.9,67.8-12.2
					C1214.9,737.3,1206.9,696.5,1205.6,690.3z"/>
				<g>
					<path fill="#845964" d="M1201.1,690.3c0.1-1,0.9-2,0.2-1.3c0.8-0.7-1,0.5-1.4,0.7c-1.7,0.9-4.3,1.6-6.6,2.2
						c-7,2-14.2,3.2-21.3,4.4c-17.2,2.8-34.6,4.7-51.9,6.4c-10.4,1-20.7,2.5-31,1.6c-15.5-1.3-30.9-2.9-46.4-4.8
						c-12-1.5-24.1-3.1-35.9-5.6c-4.3-0.9-8.6-1.9-12.7-3.3c-1.4-0.5-2-0.7-3.4-1.5c-1.1-0.6-0.3-0.5-0.1,1.2
						c-0.5-4.7-7.7-6.5-8.8-1.2c-3.7,17.7-5.7,36.3-4,54.3c0.9,9.6,2.8,19.9,9.1,27.4c5.1,6.1,13.3,9.1,20.9,10.6
						c14.5,2.8,30.5,1.2,44.7-2.6c4.6-1.2,7.3-3.8,10.3-7.3c5-5.9,10.4-10.8,17.7-13.6c10.9-4.1,23.5-3.7,34,1.4
						c6.5,3.1,11.2,8.3,15.8,13.7c7.1,8.3,21.1,8.6,31.2,9.4c15.9,1.3,34.8-0.3,45.2-13.9c6-7.8,7-19.8,7.6-29.3
						c0.7-11-0.1-22.2-1.5-33.1c-0.7-5.7-1.6-11.4-2.8-17.1c-1.2-5.7-9.9-3.3-8.7,2.4c3.7,17.7,5.8,36.8,3.3,54.8
						c-1.2,8.9-3.4,17.7-11.5,22.5c-6.9,4.1-15.7,4.8-23.6,4.9c-7.5,0.1-15.1-0.8-22.5-2.3c-2.2-0.5-4.5-1-6.6-1.6
						c-0.3-0.1-0.7-0.2-1-0.3c-1-0.3,1,0.5-0.1-0.1c-0.2-0.1-1.2-1.1-1.9-1.9c-4.7-5.1-8.9-10.1-14.7-13.9c-9.1-6-20.9-8.2-31.6-7.2
						c-9.5,0.9-18.7,4.2-26.2,10.2c-4.6,3.7-7.9,8.4-12.1,12.4c-0.4,0.4-0.6,0.5-0.5,0.4c-0.7,0.3-1.5,0.5-2.3,0.7
						c-2.5,0.7-5,1.2-7.6,1.7c-7.7,1.4-15.5,2.1-23.3,1.8c-7.6-0.2-15.5-1.6-22-5.8c-7.5-4.8-9.1-15-10.1-23.1
						c-2.1-17.6-0.1-36,3.5-53.3c-2.9-0.4-5.9-0.8-8.8-1.2c1,9.9,19,11.6,26.3,13c17.1,3.3,34.5,5.3,51.9,7.2
						c7.7,0.8,15.3,1.6,23,2.3c4.4,0.4,9.3,1.4,13.8,1.1c13.2-1.1,26.4-2.3,39.6-3.8c16.5-1.8,33.1-3.8,49.5-7.1
						c7.1-1.4,23.6-3.2,24.5-12.6C1210.7,684.5,1201.7,684.5,1201.1,690.3z"/>
				</g>
			</g>
			<g>
				<path fill="#F6998A" d="M1205.6,690.3c0-0.3,0-0.6-0.2-0.9C1205.4,689.4,1205.5,689.7,1205.6,690.3z"/>
				<g>
					<path fill="#845964" d="M1210.1,690.3c0-1.2-0.3-2-0.8-3.1c-0.4-0.7-0.9-1.2-1.6-1.6c-1-0.6-2.3-0.8-3.5-0.5
						c-1.1,0.3-2.1,1.1-2.7,2.1c-0.6,1.1-0.7,2.3-0.5,3.5c0.1,0.3,0.1,0.6,0.2,0.9c0.5,2.4,3.3,3.8,5.5,3.1c1.1-0.3,2.1-1.1,2.7-2.1
						c0.6-1.1,0.7-2.3,0.5-3.5c-0.1-0.3-0.1-0.6-0.2-0.9c-2.7,1.2-5.5,2.3-8.2,3.5c0,0.1,0.1,0.1,0.1,0.2c-0.2-0.4-0.3-0.7-0.5-1.1
						c0,0.1,0.1,0.2,0.1,0.3c-0.1-0.4-0.1-0.8-0.2-1.2c0,0.1,0,0.2,0,0.3c0,2.5,2,4.5,4.5,4.5
						C1208.1,694.8,1210.1,692.7,1210.1,690.3z"/>
				</g>
			</g>
		</g>
		<g>
			<ellipse fill-rule="evenodd" clip-rule="evenodd" fill="#F6998A" cx="1095.8" cy="689.4" rx="108" ry="34.1"/>
			<g>
				<path fill="#845964" d="M1208.3,689.4c-0.4-15.8-20.1-23.4-32.5-27.7c-25.4-8.7-53.4-10.9-80-11c-26.8-0.1-54.5,2.5-80,11
					c-12.4,4.1-32.1,12-32.5,27.7c-0.4,15.6,20.8,23.7,32.5,27.7c25.4,8.7,53.4,10.9,80,11c26.8,0.1,54.5-2.5,80-11
					C1188.3,713,1207.9,705.1,1208.3,689.4c0.2-5.8-8.8-5.8-9,0c-0.2,5.6-6.2,9.6-10.5,12.2c-8.7,5.2-18.7,8.1-28.4,10.5
					c-28.2,7-58,8-86.8,6.2c-23.3-1.5-49.2-4.7-70-16.2c-4.4-2.4-10.9-6.6-11.3-12.1c-0.5-5.5,5.5-9.7,9.6-12.3
					c13.9-8.7,31.4-12.1,47.3-14.6c22.6-3.6,45.9-4.1,68.7-2.6c19.5,1.2,39.3,4.2,57.8,10.7c7.4,2.6,23.2,8.4,23.5,18.2
					C1199.5,695.2,1208.5,695.2,1208.3,689.4z"/>
			</g>
		</g>
		<g>
			<ellipse fill-rule="evenodd" clip-rule="evenodd" fill="#F6998A" cx="1095.8" cy="689.4" rx="65.3" ry="16.8"/>
			<g>
				<path fill="#845964" d="M1165.7,689.4c-0.4-7.3-7.5-10.9-13.5-13.3c-10.7-4.5-22.9-5.9-34.3-7c-15.2-1.5-30.6-1.3-45.8,0.2
					c-11.3,1.1-23,2.8-33.6,7.2c-5.6,2.3-12.9,6.4-12.5,13.4c0.4,7.3,8.6,10.9,14.4,13.2c11,4.3,23.4,5.7,35.1,6.7
					c15.2,1.3,30.6,1.1,45.7-0.5c10.8-1.1,21.8-2.8,31.9-7C1158.8,700,1165.3,696.3,1165.7,689.4c0.3-5.8-8.7-5.8-9,0
					c0,0.8-2.9,2.7-4.4,3.5c-4.3,2.3-9.3,3.5-14,4.7c-13.8,3.3-28.2,4.1-42.4,4.1c-14.2,0.1-28.5-1-42.4-4.1c-4.5-1-9-2.3-13.2-4.3
					c-1.7-0.8-5.2-2.9-5.2-3.9c0-0.8,3-2.7,4.4-3.5c4.3-2.3,9.3-3.5,14-4.7c13.8-3.3,28.2-4.1,42.4-4.1c14.2-0.1,28.5,1,42.4,4.1
					c4.5,1,9,2.3,13.2,4.3c1.7,0.8,5.2,2.9,5.2,3.9C1157,695.2,1166,695.2,1165.7,689.4z"/>
			</g>
		</g>
		<g>
			<g>
				<path fill-rule="evenodd" clip-rule="evenodd" fill="#F8DDC8" d="M1111.9,318c-33.6,1.4-68.7-0.9-101.1-11.2
					c-7.2,9.9-11.4,22-11.4,35.1v3c0,33,26.7,59.7,59.7,59.7h86.9c33,0,59.7-26.7,59.7-59.7v-3c0-14.2-5-27.3-13.3-37.6
					C1166.5,313,1138.9,317,1111.9,318z"/>
				<g>
					<path fill="#845964" d="M1111.9,313.5c-33.7,1.3-67.6-0.9-99.9-11c-2-0.6-3.9,0.4-5.1,2.1c-13.7,19.3-15.6,44.9-6.5,66.5
						c8.6,20.3,28.6,34.7,50.3,37.5c10.2,1.3,20.9,0.6,31.2,0.6c15.7,0,31.5,0,47.2,0c5.6,0,11.2,0,16.9,0c16.2,0,31.5-6.2,43.5-17
						c25.8-23.1,27-64.4,6-91c-0.9-1.2-3-1.6-4.4-1.2C1165.5,308.4,1138.8,312.4,1111.9,313.5c-5.8,0.2-5.8,9.2,0,9
						c27.7-1.2,55.2-5.2,81.6-13.8c-1.5-0.4-2.9-0.8-4.4-1.2c15,19,16,46.7,3.3,67.1c-10.2,16.4-28.7,25.5-47.7,25.5
						c-26.4,0-52.8,0-79.2,0c-5,0-10,0.1-15-0.6c-12.5-1.9-23.7-8.3-32.3-17.4c-18.4-19.7-18.8-51.5-3.5-73
						c-1.7,0.7-3.4,1.4-5.1,2.1c33,10.3,67.9,12.6,102.3,11.3C1117.7,322.3,1117.8,313.3,1111.9,313.5z"/>
				</g>
			</g>
			<g>
				<path fill-rule="evenodd" clip-rule="evenodd" fill="#D6C4B9" d="M1201.2,317.4c0-21-41.7-38.1-98.7-38.1s-98.7,17-98.7,38.1
					c0,21,41.7,38.1,98.7,38.1S1201.2,338.4,1201.2,317.4z"/>
				<g>
					<path fill="#845964" d="M1205.7,317.4c-0.3-16.2-17-25.4-30.1-30.8c-23.9-9.9-51.2-12-76.7-11.7c-24.9,0.2-50.8,3.5-73.7,13.6
						c-12.6,5.6-27.9,16.5-25.5,32.2c2.3,15.2,19.4,23.6,32.1,28.5c23.4,9,49.6,11.1,74.4,10.8c24-0.2,49.3-3.1,71.5-12.7
						C1190.2,341.9,1205.4,332.6,1205.7,317.4c0.1-5.8-8.9-5.8-9,0c-0.3,15.5-24.1,22.9-35.8,26.3c-26.7,7.8-55.7,8.6-83.2,6.1
						c-12.7-1.2-25.3-3.5-37.4-7.3c-8.6-2.7-17.5-6.4-24.5-12.3c-4.1-3.5-8.2-8.6-7.3-14.3c1-6.5,6.6-11.2,11.7-14.5
						c12.9-8.5,29-12.2,44.1-14.7c20.7-3.4,42.2-3.6,63.1-1.7c17,1.5,34.6,4.9,50.1,12.2c7.9,3.7,19,10.2,19.2,20.2
						C1196.8,323.2,1205.8,323.2,1205.7,317.4z"/>
				</g>
			</g>
			<g>
				<path fill-rule="evenodd" clip-rule="evenodd" fill="#D6C4B9" d="M1165.5,317.4c0-8.6-26.6-15.6-62.9-15.6
					c-36.3,0-62.9,7-62.9,15.6c0,8.6,26.6,15.6,62.9,15.6C1138.9,333,1165.5,326,1165.5,317.4z"/>
				<g>
					<path fill="#845964" d="M1170,317.4c-0.4-7-7-10.3-12.7-12.7c-10.2-4.3-21.9-5.5-32.9-6.5c-15-1.4-30.3-1.2-45.4,0.2
						c-10.8,1-22,2.5-32.1,6.7c-5.3,2.2-12.2,6.1-11.8,12.8c0.4,7,8,10.4,13.6,12.6c10.6,4.1,22.4,5.3,33.6,6.3
						c15,1.3,30.3,1,45.3-0.5c10.2-1,20.9-2.6,30.4-6.5C1163.6,327.4,1169.6,323.9,1170,317.4c0.3-5.8-8.7-5.8-9,0
						c0-0.3-0.1,0.3-0.7,0.8c-0.9,0.9-2.1,1.5-3.2,2.2c-4,2.2-8.7,3.3-13.1,4.3c-13.5,3.1-27.6,3.8-41.4,3.8
						c-13.9,0-27.9-0.9-41.4-3.8c-4.2-0.9-8.5-2.1-12.3-3.9c-1.2-0.6-2.5-1.3-3.5-2.1c-0.8-0.7-1.1-1.5-1.1-1.3
						c0,0.2,0.1-0.3,0.7-0.8c0.9-0.9,2.1-1.5,3.2-2.2c4-2.2,8.7-3.3,13.1-4.3c13.5-3.1,27.6-3.8,41.4-3.8c13.8,0,27.9,0.9,41.4,3.8
						c4.2,0.9,8.5,2.1,12.3,3.9c1.2,0.6,2.5,1.3,3.5,2.1c0.8,0.7,1.1,1.5,1.1,1.3C1161.3,323.1,1170.3,323.2,1170,317.4z"/>
				</g>
			</g>
			<g>
				<path fill-rule="evenodd" clip-rule="evenodd" fill="#D6C4B9" d="M1186.7,297.1c0,0,42.6-34.1,52.8-17.8
					c10.2,16.3,8.8,34.5-0.2,38.1c-9,3.6-48.3,7-52.5-2.9C1182.5,304.5,1186.7,297.1,1186.7,297.1z"/>
				<g>
					<path fill="#845964" d="M1189.9,300.3c1.1-0.9,0.3-0.2,1.2-0.9c1.8-1.4,3.7-2.8,5.6-4.1c5.3-3.7,10.8-7.2,16.6-10.2
						c5.2-2.7,11.1-5.5,17.1-5.7c7.5-0.2,9.7,10.8,11,16.4c1.5,6.5,1.5,16-6.1,18.1c-6.5,1.7-13.4,2.2-20.1,2.5
						c-7,0.3-14.4,0.3-21.2-1.9c-5.9-1.9-5.5-11.2-3.4-15.1c2.8-5.1-5-9.6-7.8-4.5c-3.8,7.1-3.5,17.8,1.6,24.2
						c4.3,5.5,14.4,5.9,20.7,6.3c9,0.5,18.1-0.2,27-1.6c7.5-1.2,14.2-3.5,17.2-11.3c4.3-11.1,0.5-23.9-5-33.9
						c-3.7-6.7-10-8.9-17.4-7.9c-14.3,1.9-27.8,11.6-39.1,20c-1.4,1.1-2.9,2.2-4.3,3.3C1179,297.6,1185.4,303.9,1189.9,300.3z"/>
				</g>
			</g>
			<g>
				<circle fill-rule="evenodd" clip-rule="evenodd" fill="#845964" cx="1225.5" cy="300.4" r="11.1"/>
			</g>
		</g>
		<g>
			<g enable-background="new    ">
				<g>
					<path fill="#F6998A" d="M1203,509.8c0-2.3-0.3-4.7-0.9-7c-7.4-31.2-60.5-53-118.5-48.6c-53.6,4-92.7,28.9-92.5,57.3
						c0.1,7.6,0.1,15.2,0.2,22.8c0,0,0,0,0-0.1c0,2.4,0.3,4.7,0.9,7.1c7.4,31.2,60.5,53,118.5,48.6c53.8-4,93-29.2,92.5-57.7
						c0,0.1,0,0.2,0,0.3C1203.2,525,1203.1,517.4,1203,509.8z M1108,583.3c-45.8,3.5-87.8-13.8-93.7-38.4
						c-5.9-24.7,26.6-47.5,72.4-50.9c45.9-3.5,87.9,13.8,93.7,38.4C1186.3,557.1,1153.9,579.9,1108,583.3z"/>
					<g>
						<path fill="#845964" d="M1207.5,509.8c-0.8-20.7-16.9-35.2-34.1-44.3c-22.5-11.9-48.9-16.2-74.1-16.4
							c-26.1-0.2-52.9,4.6-76.4,16.2c-15.8,7.9-32.2,21.1-35.6,39.5c-1.8,9.5-0.5,19.9-0.4,29.5c0.1,5.8,8.8,5.8,9,0c0,0,0,0,0-0.1
							c-3,0-6,0-9,0c0.7,20.7,16.9,35.3,34.1,44.3c22.5,11.9,48.9,16.2,74.1,16.4c26.2,0.2,53.1-4.6,76.6-16.3
							c15.8-7.9,32.2-21.3,35.5-39.7c0.4-2.2,0.6-4.5,0.6-6.7c-3,0-6,0-9,0c0,0.1,0,0.2,0,0.3c0.2,5.8,9,5.8,9,0
							C1207.7,525,1207.6,517.4,1207.5,509.8c-0.1-5.8-9.1-5.8-9,0c0.1,7.6,0.1,15.2,0.2,22.8c3,0,6,0,9,0c0-0.1,0-0.2,0-0.3
							c-0.2-5.8-9-5.8-9,0c0.1,16.5-13.8,28.5-26.9,36.1c-20.9,12.1-46,16.7-69.8,17.5c-24.2,0.8-49.4-2.7-71.7-12.7
							c-15.9-7.2-33.8-19.8-34.5-38.9c-0.2-5.8-8.8-5.8-9,0c0,0,0,0,0,0.1c3,0,6,0,9,0c-0.1-10.8-2-23,1.8-33.3
							c2.9-7.7,9.3-14.2,15.7-19.2c19.3-14.8,44.8-20.9,68.5-23c26.3-2.3,53.5,0.6,78.1,10.4c17.2,6.8,37.7,20.1,38.5,40.6
							C1198.8,515.6,1207.8,515.6,1207.5,509.8z"/>
						<path fill="#845964" d="M1108,578.8c-25.1,1.7-52.6-1.5-74-15.7c-7.3-4.8-13.6-11.7-15.5-20.4c-1.7-7.8,2.4-15.5,7.6-21
							c16.4-17.7,44.8-22.8,67.7-23.6c23.8-0.9,51.9,3.4,71,18.9c5.9,4.8,11.1,11.4,11.9,19.1c0.8,7.4-2.9,14.1-7.8,19.4
							C1153.9,571.6,1128.8,577.1,1108,578.8c-5.7,0.5-5.8,9.5,0,9c23.1-1.9,48.2-8,65.6-24.3c12.9-12.2,16-30.3,5.1-44.8
							c-13.3-17.7-37.8-25.1-58.7-28.1c-26.1-3.7-53.8-1-78,9.7c-12,5.3-24.1,13.8-29.8,26c-5.1,10.9-3.1,23,4,32.4
							c8.8,11.7,22.7,18.5,36.2,23c17.8,5.9,37.1,7.4,55.7,6.1C1113.7,587.4,1113.8,578.4,1108,578.8z"/>
					</g>
				</g>
				<g>
					<g>
						<g>
							<path fill="#F6998A" d="M1203,509.8c0.1,7.6,0.1,15.2,0.2,22.8c0.2,28.4-38.9,53.3-92.5,57.3c-58,4.4-111.1-17.4-118.5-48.6
								c-0.6-2.4-0.8-4.7-0.9-7c-0.1-7.6-0.1-15.2-0.2-22.8c0,2.3,0.3,4.7,0.9,7c7.4,31.2,60.5,53,118.5,48.6
								C1164.2,563.1,1203.3,538.2,1203,509.8z"/>
							<g>
								<path fill="#845964" d="M1198.5,509.8c0.1,7.6,0.1,15.2,0.2,22.8c0,3.9-0.8,7.7-2.3,11.3c-3.5,8.2-10.2,14.8-17.4,19.9
									c-20.5,14.7-47.1,20.4-71.8,21.9c-26.3,1.6-54.1-1.9-78.1-13.1c-9.2-4.3-17.9-10-24.6-17.6c-2.6-3-4.9-6.5-6.4-10.2
									c-2.6-6.4-2.2-13.2-2.3-20c0-4.4-0.1-8.9-0.1-13.3c-3,0-6,0-9,0c0.8,20.7,16.9,35.2,34.1,44.3
									c22.5,11.9,48.9,16.2,74.1,16.4c26.1,0.2,53-4.6,76.4-16.2c15.8-7.9,32.2-21.1,35.6-39.5c0.4-2.2,0.6-4.5,0.6-6.7
									C1207.6,504,1198.6,504,1198.5,509.8c-0.1,16.4-14,28.3-27.1,35.9c-20.8,12.1-45.8,16.6-69.6,17.4
									c-24.2,0.8-49.4-2.7-71.7-12.7c-15.8-7.1-33.7-19.8-34.5-38.9c-0.2-5.8-9-5.8-9,0c0.1,12.9-1.4,26.5,3.9,38.5
									c3.7,8.3,10.4,15.1,17.6,20.4c19.1,14.3,43.3,20.6,66.7,23.3c27.1,3.1,55.5,0.5,81.3-8.6c18.3-6.4,37.9-17.3,47.2-35.1
									c6.4-12.3,4.3-26.9,4.2-40.3C1207.5,504,1198.5,504,1198.5,509.8z"/>
							</g>
						</g>
					</g>
				</g>
				<g>
					<g>
						<g>
							<path fill="#F6998A" d="M1086.4,460.8l-2.8-6.6c58-4.4,111.1,17.4,118.5,48.6c7.4,31.2-33.6,60-91.6,64.4
								c-58,4.4-111.1-17.4-118.5-48.6c-7.4-31.2,33.6-60,91.6-64.4L1086.4,460.8c-45.9,3.4-78.3,26.2-72.4,50.9
								c5.9,24.7,47.8,41.9,93.7,38.4c45.9-3.4,78.3-26.2,72.4-50.9C1174.3,474.5,1132.3,457.3,1086.4,460.8z"/>
							<g>
								<path fill="#845964" d="M1090.8,459.6c-0.9-2.2-1.8-4.4-2.8-6.6c-1.4,1.9-2.9,3.8-4.3,5.7c26.7-1.9,54.5,0.9,79.2,11.7
									c15.9,7,35,19.7,35.7,39c0.7,18.8-17.9,31.9-32.7,39.3c-24.2,12.1-52.7,15.5-79.5,14.3c-21.8-1-44.1-5.7-63.4-16.2
									c-13-7.1-26.7-18.8-27.3-34.8c-0.6-15.5,12.6-27.4,24.6-34.9c18.8-11.7,41.6-16.7,63.4-18.4c-1.4-1.1-2.9-2.2-4.3-3.3
									c0.9,2.2,1.8,4.4,2.8,6.6c1.4-1.9,2.9-3.8,4.3-5.7c-23.1,1.9-48.2,8-65.5,24.3c-12.9,12.2-16,30.3-5.1,44.8
									c13.3,17.7,37.8,25.1,58.7,28.1c26.1,3.7,53.8,1,78-9.7c12-5.3,24.1-13.8,29.8-26c5.1-10.9,3.1-23-4-32.4
									c-8.8-11.7-22.7-18.5-36.2-23c-17.8-5.9-37.1-7.4-55.7-6.1c-5.8,0.4-5.8,9.4,0,9c25.1-1.7,52.6,1.5,74.1,15.7
									c7.3,4.8,13.6,11.7,15.5,20.4c1.7,7.8-2.4,15.5-7.6,21c-16.4,17.7-44.8,22.8-67.7,23.6c-23.8,0.9-51.9-3.4-71-18.9
									c-5.9-4.8-11.1-11.4-11.9-19.1c-0.8-7.4,2.9-14.1,7.8-19.4c14.8-16,39.9-21.6,60.7-23.3C1089,465.1,1092,462.5,1090.8,459.6
									c-0.9-2.2-1.8-4.4-2.8-6.6c-0.7-1.8-2.2-3.5-4.3-3.3c-24.7,2-50.1,7.9-71.1,21.7c-14.3,9.4-27,24.4-25.8,42.5
									c1.3,19,17.2,32.8,32.8,41.3c22.2,12.1,48.5,16.6,73.6,17c26.3,0.5,53.4-4.2,77.2-15.7c16.1-7.8,32.8-21,36.5-39.5
									c3.7-18.2-7.8-33.8-21.6-44.1c-19.1-14.3-44.1-20.3-67.4-22.8c-11.4-1.2-22.8-1.2-34.2-0.4c-2.6,0.2-5.6,2.8-4.3,5.7
									c0.9,2.2,1.8,4.4,2.8,6.6C1084.3,467.2,1093,464.9,1090.8,459.6z"/>
							</g>
						</g>
					</g>
				</g>
			</g>
			<g>
				<g>
					<rect x="1097.9" y="563" fill="#F6998A" width="8.1" height="25"/>
					<g>
						<path fill="#845964" d="M1106,558.5c-2.7,0-5.4,0-8.1,0c-2.5,0-4.5,2-4.5,4.5c0,8.3,0,16.7,0,25c0,2.5,2,4.5,4.5,4.5
							c2.7,0,5.4,0,8.1,0c2.5,0,4.5-2,4.5-4.5c0-8.3,0-16.7,0-25c0-5.8-9-5.8-9,0c0,8.3,0,16.7,0,25c1.5-1.5,3-3,4.5-4.5
							c-2.7,0-5.4,0-8.1,0c1.5,1.5,3,3,4.5,4.5c0-8.3,0-16.7,0-25c-1.5,1.5-3,3-4.5,4.5c2.7,0,5.4,0,8.1,0
							C1111.8,567.5,1111.8,558.5,1106,558.5z"/>
					</g>
				</g>
			</g>
			<g>
				<g>
					<rect x="1097.9" y="546.1" fill="#F6998A" width="8.1" height="17.2"/>
					<g>
						<path fill="#845964" d="M1106,541.6c-2.7,0-5.4,0-8.1,0c-2.5,0-4.5,2-4.5,4.5c0,5.7,0,11.5,0,17.2c0,2.5,2,4.5,4.5,4.5
							c2.7,0,5.4,0,8.1,0c2.5,0,4.5-2,4.5-4.5c0-5.7,0-11.5,0-17.2c0-5.8-9-5.8-9,0c0,5.7,0,11.5,0,17.2c1.5-1.5,3-3,4.5-4.5
							c-2.7,0-5.4,0-8.1,0c1.5,1.5,3,3,4.5,4.5c0-5.7,0-11.5,0-17.2c-1.5,1.5-3,3-4.5,4.5c2.7,0,5.4,0,8.1,0
							C1111.8,550.6,1111.8,541.6,1106,541.6z"/>
					</g>
				</g>
			</g>
			<g>
				<g>
					<g>
						<circle fill="#F9DA97" cx="1101.1" cy="610.1" r="24"/>
						<g>
							<path fill="#845964" d="M1072.6,610.1c0.4,15.8,12.7,28.1,28.5,28.5c15.8,0.4,28.1-13.3,28.5-28.5
								c0.4-15.8-13.3-28.1-28.5-28.5C1085.2,581.1,1073,594.9,1072.6,610.1c-0.2,5.8,8.8,5.8,9,0c0.3-10.9,8.6-19.2,19.5-19.5
								c10.9-0.3,19.2,9.1,19.5,19.5c0.3,10.9-9.1,19.2-19.5,19.5c-10.9,0.3-19.2-9.1-19.5-19.5
								C1081.4,604.3,1072.4,604.3,1072.6,610.1z"/>
						</g>
					</g>
				</g>
				<g>
					<g>
						<g>
							<rect x="1098.7" y="612.2" fill="#F6998A" width="4.8" height="21.9"/>
							<g>
								<path fill="#845964" d="M1094.2,612.2c0,7.3,0,14.6,0,21.9c0,2.5,2,4.5,4.5,4.5c1.6,0,3.2,0,4.8,0c2.5,0,4.5-2,4.5-4.5
									c0-7.3,0-14.6,0-21.9c0-2.5-2-4.5-4.5-4.5c-1.6,0-3.2,0-4.8,0c-5.8,0-5.8,9,0,9c1.6,0,3.2,0,4.8,0c-1.5-1.5-3-3-4.5-4.5
									c0,7.3,0,14.6,0,21.9c1.5-1.5,3-3,4.5-4.5c-1.6,0-3.2,0-4.8,0c1.5,1.5,3,3,4.5,4.5c0-7.3,0-14.6,0-21.9
									C1103.2,606.4,1094.2,606.4,1094.2,612.2z"/>
							</g>
						</g>
					</g>
					<g>
						<g>
							<circle fill="#F6998A" cx="1101.1" cy="610.9" r="5.7"/>
							<g>
								<path fill="#845964" d="M1101.1,600.7c-5.8,0.3-9.9,4.4-10.2,10.2c-0.3,5.7,4.9,9.9,10.2,10.2c5.7,0.3,9.9-4.9,10.2-10.2
									C1111.6,605.1,1106.4,600.9,1101.1,600.7c-5.8-0.3-5.8,8.7,0,9c1.6,0.1,1.6,2.3,0,2.4c-1.6,0.1-1.6-2.3,0-2.4
									C1106.8,609.3,1106.9,600.3,1101.1,600.7z"/>
							</g>
						</g>
					</g>
				</g>
			</g>
		</g>
		<g>
			<g>
				<path fill="#F9DA97" d="M832.9,480.8c3.3,0.4,5.9,2.9,6.7,6.1c21.5-11.1,41.7-5.1,54.2,1.3c-11-15.8-28.2-26.9-48-29.9
					C840.7,462.8,835.2,470.1,832.9,480.8"/>
				<g>
					<path fill="#845964" d="M831.7,485.1c1.9,0.4,2.9,1,3.5,2.9c0.9,2.9,3.9,4,6.6,2.7c16.1-8,33.8-6.7,49.6,1.3
						c3.7,1.9,9-2.2,6.2-6.2c-9.5-13.2-22.2-23-37.4-28.6c-3.8-1.4-7.8-2.4-11.7-3.1c-4.4-0.8-6.2,1-9.1,4.2
						c-5.4,6-8.9,13.4-10.8,21.2c-1.3,5.6,7.3,8,8.7,2.4c1.9-8,5.7-14.9,11.7-20.5c-1.5,0.4-2.9,0.8-4.4,1.2
						c18.3,3,34.5,12.7,45.3,27.8c2.1-2.1,4.1-4.1,6.2-6.2c-18.9-9.5-39.5-10.8-58.7-1.3c2.2,0.9,4.4,1.8,6.6,2.7
						c-1.6-4.8-4.8-8.1-9.8-9.2C828.4,475.2,826,483.8,831.7,485.1L831.7,485.1z"/>
				</g>
			</g>
			<g>
				<path fill="#F9DA97" d="M839.5,486.8c0.1,0.6,0.2,1.2,0.2,1.8c0,0.9-0.2,1.8-0.5,2.7c56.6,9.1,61,50.7,60,69.6
					c4.7-9.6,7.4-20.3,7.4-31.7c0-15.3-4.8-29.4-12.9-41C881.2,481.7,861.1,475.7,839.5,486.8"/>
				<g>
					<path fill="#845964" d="M835,486.8c0.3,1.1,0.3,2.2-0.1,3.3c-0.6,2.2,0.7,5.1,3.1,5.5c19.5,3.3,38.5,11.4,48.9,29
						c6.4,10.8,8.4,23.8,7.7,36.2c-0.2,4.4,6.4,6.3,8.4,2.3c11.3-23.5,10.4-50.6-2.9-73.1c-2.9-4.9-5.7-6.6-10.8-8.7
						c-5.2-2.1-10.5-3.6-16-4.4c-12.6-1.9-24.9,0.5-36.2,6.1c-5.2,2.6-0.6,10.3,4.5,7.8c9.6-4.8,20.1-6.6,30.7-5
						c4.1,0.6,8.2,1.8,12.1,3.3c4.5,1.6,6.3,2.8,8.7,7c11.1,19,11.4,43,2,62.6c2.8,0.8,5.6,1.5,8.4,2.3c0.7-14.1-2-28.4-9-40.7
						c-11.2-19.7-32.7-29.6-54.3-33.2c1,1.8,2.1,3.7,3.1,5.5c0.5-2,0.7-3.6,0.4-5.7C843.4,481.1,834.4,481.1,835,486.8L835,486.8z"
						/>
				</g>
			</g>
			<g>
				<path fill="#F9DA97" d="M826.5,482.8c1.4-1.3,3.3-2.1,5.4-2.1c0.4,0,0.7,0,1,0.1c2.3-10.7,7.8-17.9,12.8-22.5
					c-3.5-0.5-7.2-0.8-10.9-0.8c-11.6,0-22.6,2.8-32.3,7.7C808.9,466.8,818.5,471.3,826.5,482.8"/>
				<g>
					<path fill="#845964" d="M828.7,486.7c1.3-1,2.4-1.5,4.1-1.4c1.9,0.1,3.9-1.5,4.3-3.3c1.9-8,5.7-14.9,11.7-20.5
						c2.2-2.1,1.4-7-2-7.5c-16.2-2.3-31.9,0.1-46.7,7.3c-3.6,1.8-2.5,7.2,1.1,8.2c8.8,2.5,16,8.2,21.3,15.6
						c3.4,4.7,11.2,0.2,7.8-4.5c-6.7-9.3-15.5-16.6-26.6-19.7c0.4,2.7,0.7,5.5,1.1,8.2c12.3-6,26.1-8.3,39.7-6.4
						c-0.7-2.5-1.3-5-2-7.5c-7.1,6.7-11.8,15.1-14,24.5c1.4-1.1,2.9-2.2,4.3-3.3c-3.2-0.2-6.1,0.7-8.7,2.6
						C819.7,482.4,824.1,490.2,828.7,486.7L828.7,486.7z"/>
				</g>
			</g>
			<g>
				<path fill="#F9DA97" d="M839.3,491.3c-0.8,2.2-2.6,4-4.8,4.8l0.4,0.2c36.8,48.5,22.1,87.9,13.4,103.4
					c22.5-4.2,41.2-18.9,51-38.8C900.3,542,895.9,500.4,839.3,491.3"/>
				<g>
					<path fill="#845964" d="M835.4,489c-0.8,1.6-1.5,2.4-3.2,3.2c-3.2,1.5-2.7,6.2,0,7.8c0.6,0.3,2.5,3.8,3.3,4.9
						c2.1,3,3.9,6.1,5.7,9.2c3,5.3,5.6,10.8,7.7,16.5c3.4,9.2,5.1,18.9,5.2,28.7c0.2,13.3-3.3,26.6-9.8,38.2c-2,3.6,1.3,7.4,5.1,6.6
						c19-3.8,35.3-14.5,47-29.8c2.6-3.4,6-7.9,7.2-12.1c0.5-2,0.3-4.4,0.3-6.5c0-5.2-0.6-10.3-1.6-15.4
						c-2.3-11.8-7.9-22.8-16.2-31.6c-11.9-12.6-28.9-18.8-45.6-21.6c-5.7-0.9-8.1,7.7-2.4,8.7c14.7,2.5,29.2,7.4,40.2,17.9
						c7.8,7.4,12.6,17.1,15,27.5c1,4.1,1.4,8.4,1.6,12.6c0.1,1.8,0.1,3.7,0,5.6c-0.1,1.8-2.9,5.6-4.5,8.1
						c-9.9,14.8-25.9,24.6-43.2,28c1.7,2.2,3.4,4.4,5.1,6.6c7.5-13.4,11.2-28.6,11-44c-0.1-11.2-2.6-22.3-6.6-32.7
						c-2.3-6-5.2-11.7-8.4-17.3c-1.8-3.2-3.9-6.2-5.9-9.2c-1.5-2.2-3.1-5.1-5.4-6.5c0,2.6,0,5.2,0,7.8c2.9-1.4,5-3.5,6.4-6.4
						C845.6,488.3,837.8,483.8,835.4,489L835.4,489z"/>
				</g>
			</g>
			<g>
				<path fill="#F9DA97" d="M848.2,599.7c8.7-15.5,23.5-54.9-13.4-103.4l-0.4-0.2c-0.8,0.3-1.7,0.5-2.7,0.5c-0.5,0-0.9,0-1.3-0.1
					c-25.6,67.6-17,93.7-9.7,103.1c4.6,0.9,9.3,1.4,14.1,1.4C839.4,600.9,843.9,600.5,848.2,599.7"/>
				<g>
					<path fill="#845964" d="M852.1,601.9c7.8-14.1,11.6-30.2,10.9-46.3c-0.5-11.8-3.5-23.5-8.2-34.3c-3-6.8-6.5-13.3-10.6-19.5
						c-1.9-2.9-4.2-7.6-7.2-9.4c-2.2-1.4-4.2-0.3-6.6-0.5c-2.1-0.2-3.7,1.5-4.3,3.3c-9.7,25.9-19.5,55-17,83.1
						c0.6,6.7,2.1,13.3,5.1,19.4c1,2,2.9,5.8,5.3,6.2c10,1.9,19.8,1.9,29.9,0.1c5.7-1,3.3-9.7-2.4-8.7c-8.3,1.5-16.8,1.4-25.1-0.1
						c0.9,0.7,1.8,1.4,2.7,2.1c-5.8-7.7-6.9-18-6.8-27.9c0.2-24.5,8.5-49,17-71.7c-1.4,1.1-2.9,2.2-4.3,3.3c1.8,0.2,3.4,0,5.2-0.5
						c-1.2-0.2-2.3-0.3-3.5-0.5c0.6,0.3,2.5,3.8,3.3,4.9c2.1,3,3.9,6.1,5.7,9.2c3,5.3,5.6,10.8,7.7,16.5c3.4,9.2,5.1,18.9,5.2,28.7
						c0.2,13.3-3.3,26.6-9.8,38.2C841.5,602.5,849.3,607,852.1,601.9L852.1,601.9z"/>
				</g>
			</g>
			<g>
				<path fill="#F9DA97" d="M830.5,496.4c-2.4-0.4-4.4-1.9-5.5-3.9c-26,14-45,50.2-53.7,69.8c9.9,18.9,28,32.9,49.6,37.2
					C813.5,590.1,804.9,564,830.5,496.4"/>
				<g>
					<path fill="#845964" d="M831.7,492.1c-1.2-0.1-2.2-0.7-2.9-1.8c-1.4-2-3.9-2.9-6.2-1.6c-23.9,13.3-39.5,38.9-51.3,62.7
						c-1.1,2.3-2.2,4.6-3.3,6.9c-1.7,3.7-1.4,5.4,0.6,8.9c3.5,6.2,8.1,11.8,13.1,16.8c10.3,10.1,23.7,17,37.7,19.9
						c3.4,0.7,7.7-3.2,5.1-6.6c-5.8-7.7-6.9-18-6.8-27.9c0.2-24.5,8.5-49,17-71.7c2-5.4-6.7-7.8-8.7-2.4c-9,23.8-17.1,49.3-17.3,75
						c-0.1,10.7,1.4,22.8,8,31.6c1.7-2.2,3.4-4.4,5.1-6.6c-20.3-4.3-37.1-16.9-46.9-35.2c0,1.5,0,3,0,4.5
						c11.4-25.4,27-54.2,52.1-68.2c-2.1-0.5-4.1-1.1-6.2-1.6c2.1,3.1,4.6,5,8.2,6C834.9,502.2,837.3,493.6,831.7,492.1L831.7,492.1z
						"/>
				</g>
			</g>
			<g>
				<path fill="#F9DA97" d="M824.9,492.5c-0.7-1.2-1-2.5-1-3.9c0-0.4,0-0.7,0.1-1.1c-20.6-4.5-42.9,5.8-54.9,12.9
					c-3.9,8.8-6,18.6-6,28.8c0,12,2.9,23.2,8.1,33.1C780,542.8,799,506.6,824.9,492.5"/>
				<g>
					<path fill="#845964" d="M828.8,490.3c-0.4-0.9-0.5-1.8-0.3-2.8c0.1-1.9-1.5-4-3.3-4.3c-10.9-2.2-21.7-1.1-32.3,1.8
						c-4.9,1.4-9.7,3.3-14.3,5.4c-3.9,1.7-9.5,3.7-12.6,6.8c-3.3,3.3-4.4,10.7-5.4,15c-1.5,6.1-2,12.5-1.9,18.8
						c0.1,11.7,3.4,23.2,8.7,33.6c1.4,2.8,6.4,3,7.8,0c11.4-25.4,27-54.2,52.1-68.2c5.1-2.8,0.5-10.6-4.5-7.8
						c-26.5,14.8-43.3,44.6-55.4,71.4c2.6,0,5.2,0,7.8,0c-4.3-8.6-6.8-17.7-7.4-27.3c-0.3-4.9,0-9.9,0.8-14.7
						c0.4-2.3,0.9-4.5,1.5-6.8c0.3-1.2,1.4-7,2.4-7.6c14.8-8.7,33.1-15.3,50.4-11.8c-1.1-1.4-2.2-2.9-3.3-4.3
						c-0.2,2.7,0.5,4.9,1.6,7.3C823.5,500.1,831.2,495.5,828.8,490.3L828.8,490.3z"/>
				</g>
			</g>
			<g>
				<path fill="#F9DA97" d="M824,487.5c0.3-1.9,1.2-3.5,2.5-4.7c-8-11.5-17.6-15.9-24-17.7c-14.8,7.5-26.7,20-33.4,35.2
					C781,493.3,803.3,483,824,487.5"/>
				<g>
					<path fill="#845964" d="M828.3,488.7c0.1-1.1,0.5-2,1.3-2.7c1.3-1.4,1.9-3.8,0.7-5.5c-4.4-6.1-9.4-11.2-15.8-15.1
						c-2.6-1.6-5.4-2.8-8.2-3.8c-3.6-1.3-5.5-0.7-8.9,1.1c-14.3,7.8-25.6,20.7-32.3,35.4c-1.8,3.9,2,8.6,6.2,6.2
						c15.2-8.9,33.6-16,51.4-12.4c5.7,1.1,8.1-7.5,2.4-8.7c-20.3-4.1-40.9,3.1-58.3,13.3c2.1,2.1,4.1,4.1,6.2,6.2
						c6.6-14.6,17.5-26.2,31.8-33.6c-1.2,0.2-2.3,0.3-3.5,0.5c8.8,2.5,16,8.2,21.3,15.6c0.2-1.8,0.5-3.6,0.7-5.5
						c-1.8,2-3,4.1-3.6,6.7C818.3,492,827,494.4,828.3,488.7L828.3,488.7z"/>
				</g>
			</g>
			<g>
				<path fill="#F9DA97" d="M831.8,496.5c-4.4,0-7.9-3.6-7.9-7.9c0-4.4,3.5-7.9,7.9-7.9c4.4,0,7.9,3.5,7.9,7.9
					C839.8,493,836.2,496.5,831.8,496.5"/>
				<g>
					<path fill="#845964" d="M831.8,492c-4.4-0.2-4.4-6.6,0-6.9C836.3,484.9,836.2,491.8,831.8,492c-5.8,0.3-5.8,9.3,0,9
						c7-0.4,12.1-5.4,12.4-12.4c0.4-7-6-12.1-12.4-12.4c-7-0.4-12.1,6-12.4,12.4c-0.4,7,6,12.1,12.4,12.4
						C837.6,501.4,837.6,492.4,831.8,492L831.8,492z"/>
				</g>
			</g>
		</g>
		<g>
			<g>
				<g>
					<path fill="#AD8D8F" d="M901.3,301c0-8-6.5-14.4-14.4-14.4H765.5c-8,0-14.4,6.5-14.4,14.4v112.7c0,8,6.5,14.4,14.4,14.4h121.3
						c8,0,14.4-6.5,14.4-14.4V301z"/>
					<g>
						<path fill="#845964" d="M905.8,301c-0.5-10.3-8.3-18.9-19-18.9c-2.4,0-4.8,0-7.2,0c-13.2,0-26.4,0-39.5,0
							c-24.8,0-49.5,0-74.3,0c-9.1,0-16.7,6.2-18.8,15c-0.7,2.9-0.4,6.2-0.4,9.1c0,12.8,0,25.6,0,38.3c0,15.8,0,31.5,0,47.3
							c0,8-0.9,16.5,0.2,24.5c1.3,9.4,9.4,16.4,18.9,16.4c2.7,0,5.4,0,8.1,0c13.5,0,27,0,40.5,0c24.2,0,48.3,0,72.5,0
							c9.4,0,17.5-7.1,18.8-16.4c0.4-2.7,0.2-5.5,0.2-8.2c0-12.6,0-25.3,0-37.9C905.8,347.1,905.8,324,905.8,301c0-5.8-9-5.8-9,0
							c0,23.7,0,47.4,0,71.1c0,12.4,0,24.8,0,37.3c0,3.9,0.3,7.6-2.5,10.9c-2.9,3.5-7.1,3.4-11.2,3.4c-28,0-56,0-84.1,0
							c-10.6,0-21.2,0-31.8,0c-6,0-11.7-3.2-11.7-10c0-2.4,0-4.7,0-7.1c0-28.9,0-57.9,0-86.8c0-4.9,0-9.9,0-14.8c0-4.3,0-8,3.4-11.4
							c2.8-2.8,7-2.5,10.6-2.5c4.8,0,9.7,0,14.5,0c23.1,0,46.1,0,69.2,0c8.9,0,17.9,0,26.8,0c7.3,0,16.2-0.1,16.7,9.9
							C897.1,306.7,906.1,306.8,905.8,301z"/>
					</g>
				</g>
				<g>
					<path fill="#F9DA97" d="M907.8,259.1c0-8-6.5-14.4-14.4-14.4H759.1c-8,0-14.4,6.5-14.4,14.4v13c0,8,6.5,14.4,14.4,14.4h134.3
						c8,0,14.4-6.5,14.4-14.4V259.1z"/>
					<g>
						<path fill="#845964" d="M912.3,259.1c-0.5-10.3-8.3-18.9-19-18.9c-2.2,0-4.3,0-6.5,0c-12.4,0-24.7,0-37.1,0
							c-28.3,0-56.6,0-85,0c-1.9,0-3.8,0-5.7,0c-10.6,0-18.9,8.9-18.9,19.3c0,7.2-0.9,14.7,2.2,21.4c3,6.7,10.6,10.2,17.6,10.2
							c24.8,0,49.6,0,74.3,0c17.8,0,35.7,0,53.5,0c6,0,11.4,0.1,16.7-3.6C913.9,280.9,912.3,269.2,912.3,259.1c0-5.8-9-5.8-9,0
							c0,5.9,1.6,14.6-2.5,19.5c-2.9,3.4-6.9,3.4-10.8,3.4c-11,0-22,0-33,0c-29.5,0-58.9,0-88.4,0c-3,0-6,0-9,0
							c-7.7,0-10.6-6-10.6-12.7c0-8-1.4-19.6,9.9-20.1c1.9-0.1,3.8,0,5.7,0c28.3,0,56.6,0,85,0c11.4,0,22.7,0,34.1,0
							c7.9,0,19-1.3,19.5,9.9C903.6,264.9,912.6,264.9,912.3,259.1z"/>
					</g>
				</g>
				<g>
					<path fill="#FFFFFF" d="M751.1,324.1v44.4c20.2,4.4,46.4,7,75.1,7c28.7,0,54.9-2.6,75.1-7v-44.4c-20.2-4.4-46.4-7-75.1-7
						C797.5,317.1,771.3,319.8,751.1,324.1z"/>
					<g>
						<path fill="#845964" d="M746.6,324.1c0,14.8,0,29.6,0,44.4c0,1.9,1.4,3.9,3.3,4.3c25,5.3,50.8,7.1,76.3,7.2
							c25.5,0.1,51.3-1.9,76.3-7.2c1.9-0.4,3.3-2.4,3.3-4.3c0-14.8,0-29.6,0-44.4c0-1.9-1.4-3.9-3.3-4.3c-25-5.3-50.8-7.1-76.3-7.2
							c-25.5-0.1-51.3,1.9-76.3,7.2c-5.7,1.2-3.3,9.9,2.4,8.7c24.2-5.2,49.2-6.8,73.9-6.9c24.7-0.1,49.7,1.7,73.9,6.9
							c-1.1-1.4-2.2-2.9-3.3-4.3c0,14.8,0,29.6,0,44.4c1.1-1.4,2.2-2.9,3.3-4.3c-24.2,5.2-49.2,6.8-73.9,6.9
							c-24.7,0.1-49.7-1.7-73.9-6.9c1.1,1.4,2.2,2.9,3.3,4.3c0-14.8,0-29.6,0-44.4C755.6,318.3,746.6,318.3,746.6,324.1z"/>
					</g>
				</g>
			</g>
		</g>
	</g>
</g>
</svg>
